<svg xmlns="http://www.w3.org/2000/svg" width="99" height="50" fill="none"><path fill="#151515" d="M.4 49V1h14.46l3.96 18.18.78 21.9h1.56l.72-21.9L25.9 1h14.4v48h-9V34.24l1.74-25.32h-1.62L28.9 34.84 25.18 49h-9.66l-3.66-14.16L9.28 8.92H7.72L9.4 34.24V49h-9Zm85.313.6c-3.02 0-5.44-.4-7.26-1.2-1.82-.82-3.15-2.11-3.99-3.87-.84-1.78-1.31-4.11-1.41-6.99-.06-1.68-.11-3.59-.15-5.73a719.7 719.7 0 0 1 0-13.26c.04-2.12.09-3.99.15-5.61.12-3.04.61-5.48 1.47-7.32.88-1.84 2.22-3.17 4.02-3.99C80.363.81 82.753.4 85.713.4c4.2 0 7.26.93 9.18 2.79 1.94 1.84 3.04 4.91 3.3 9.21.06.92.09 2.02.09 3.3 0 1.26-.03 2.36-.09 3.3h-9c.06-1.12.09-2.5.09-4.14 0-1.66-.03-3.04-.09-4.14-.06-.96-.39-1.7-.99-2.22-.6-.52-1.43-.78-2.49-.78-1.16 0-2.05.26-2.67.78-.6.52-.93 1.26-.99 2.22-.12 2.1-.21 4.37-.27 6.81-.06 2.42-.09 4.9-.09 7.44s.03 5.03.09 7.47c.06 2.42.15 4.68.27 6.78.06.98.39 1.74.99 2.28.62.52 1.51.78 2.67.78 1.14 0 2.05-.26 2.73-.78.7-.54 1.09-1.3 1.17-2.28.04-.46.06-1.06.06-1.8.02-.76.02-1.51 0-2.25 0-.76-.02-1.37-.06-1.83h-3.3v-7.8h12.06c.1 1.82.14 3.82.12 6-.02 2.16-.08 4.16-.18 6-.2 4.32-1.28 7.41-3.24 9.27-1.94 1.86-5.06 2.79-9.36 2.79Z"/><path fill="#D5966C" d="m43.307 49 6.66-48h14.16l6.66 48h-9.24l-1.02-10.02h-6.96L52.547 49h-9.24Zm11.1-17.94h5.28l-1.08-10.62-.72-11.52h-1.68l-.72 11.52-1.08 10.62Z"/></svg>